<?xml version="1.0" encoding="utf-8"?>
<!-- Generator: Adobe Illustrator 23.0.6, SVG Export Plug-In . SVG Version: 6.00 Build 0)  -->
<svg version="1.1" id="Calque_1" xmlns="http://www.w3.org/2000/svg" xmlns:xlink="http://www.w3.org/1999/xlink" x="0px" y="0px"
	 viewBox="0 0 30 30" style="enable-background:new 0 0 30 30;" xml:space="preserve">
<style type="text/css">
	.st0{fill:none;stroke:#1530A0;stroke-miterlimit:10;}
	.st1{fill:#1530A0;}
</style>
<g>
	<circle class="st0" cx="14.7" cy="15" r="12.2"/>
</g>
<g>
	<g>
		<g>
			<path class="st1" d="M21.8,15.1c0,1.1,0,2.2,0,3.2c-0.1,2.2-1.6,3.8-3.8,3.8s-4.4,0-6.5,0c-2.2,0-3.7-1.6-3.8-3.8
				c-0.1-2.2-0.1-4.4,0-6.5C7.8,9.6,9.3,8,11.5,7.9c2.2,0,4.3,0,6.5,0s3.8,1.6,3.8,3.8C21.8,12.9,21.8,14,21.8,15.1z M20.6,15.1
				L20.6,15.1c-0.1-1-0.1-2-0.1-2.9c0-0.2,0-0.3,0-0.5c-0.1-1.2-0.9-2.1-2.1-2.3c-0.7,0-1.3,0-2,0c-1.8,0-3.4,0-5.2,0
				c-1.2,0.1-2.1,0.9-2.3,2.1c-0.1,0.5-0.1,1.2-0.1,1.7c0,1.7,0,3.6,0.1,5.3c0.1,1.4,1,2.3,2.4,2.4c2.3,0.1,4.6,0.1,6.8,0
				c1.3,0,2.2-1,2.3-2.3C20.6,17.4,20.6,16.3,20.6,15.1z"/>
		</g>
		<g>
			<path class="st1" d="M11.1,15.1c0-2.1,1.6-3.6,3.6-3.6c2.1,0,3.6,1.6,3.7,3.6c0,2.1-1.6,3.6-3.6,3.7
				C12.6,18.8,11.1,17.2,11.1,15.1z M17.1,15.1c0-1.3-1.1-2.4-2.4-2.4s-2.4,1.1-2.4,2.4s1.1,2.4,2.4,2.4
				C16,17.5,17.1,16.4,17.1,15.1z"/>
		</g>
		<g>
			<path class="st1" d="M18.8,10.8c0,0.5-0.4,0.9-0.9,0.9s-0.9-0.3-0.9-0.9c0-0.4,0.4-0.9,0.9-0.9S18.8,10.3,18.8,10.8"/>
		</g>
	</g>
</g>
</svg>
