<?xml version="1.0" encoding="utf-8"?>
<!-- Generator: Adobe Illustrator 23.0.6, SVG Export Plug-In . SVG Version: 6.00 Build 0)  -->
<svg version="1.1" id="Calque_1" xmlns="http://www.w3.org/2000/svg" xmlns:xlink="http://www.w3.org/1999/xlink" x="0px" y="0px"
	 viewBox="0 0 30 30" style="enable-background:new 0 0 30 30;" xml:space="preserve">
<style type="text/css">
	.st0{fill:none;stroke:#1530A0;stroke-miterlimit:10;}
	.st1{fill:#343434;}
</style>
<g>
	<g>
		<circle class="st0" cx="15" cy="15.2" r="12.2"/>
	</g>
	<g>
		<path class="st1" d="M13.8,11.5c1.1-1.6,2.5-2.4,4.5-1.8c1.5,0.4,2.5,1.7,2.5,3.3c0.1,1.8-0.8,3-2.5,3.8c0.2,0.3,0.4,0.7,0.6,1
			c0.1,0.1,0.1,0.3,0.1,0.4c-0.1,0-0.3,0.1-0.4,0c-0.6-0.3-1.1-0.7-1.7-1c-0.2-0.1-0.5-0.3-0.8-0.4c-0.3-0.1-0.6-0.2-0.9-0.3
			c-0.5,0.5-0.9,0.9-1.4,1.3c-0.5,0.4-1.2,0.6-1.9,0.6c-0.2,0-0.3,0.1-0.5,0.1c-0.7,0.3-1.3,0.5-2,0.8c-0.1,0-0.3-0.1-0.4-0.1
			c0.1-0.1,0.1-0.2,0.2-0.3c0.2-0.3,0.5-0.6,0.8-0.9c-1.1-0.7-1.7-1.6-1.9-2.8c-0.1-0.9,0-1.7,0.5-2.5C9.8,11.1,11.6,10.6,13.8,11.5
			z M18.1,17.5C18.2,17.5,18.2,17.5,18.1,17.5c0-0.2-0.1-0.4-0.1-0.5c-0.2-0.5-0.2-0.5,0.3-0.7c1.4-0.6,2.3-2,2.1-3.5
			c-0.2-1.7-1.6-2.9-3.4-2.9c-1.6,0-3,1.4-3.1,3c-0.1,1.7,1,3.2,2.7,3.5c0.2,0,0.4,0.1,0.5,0.2C17.4,17,17.8,17.2,18.1,17.5z
			 M14.8,16.2c-1.3-1.2-1.7-2.6-1.2-4.2c-0.8-0.5-1.6-0.6-2.5-0.4c-1.3,0.3-2.3,1.4-2.5,2.7c-0.2,1.4,0.4,2.7,1.6,3.4
			c0.3,0.2,0.3,0.3,0.2,0.6c-0.1,0.2-0.2,0.3-0.3,0.5c0,0,0,0,0.1,0.1c0.4-0.2,0.8-0.4,1.2-0.6c0.1-0.1,0.3-0.1,0.5-0.1
			C13.2,18,14.2,17.3,14.8,16.2z"/>
		<path class="st1" d="M20.3,24.5C20.3,24.6,20.3,24.6,20.3,24.5C20.3,24.6,20.3,24.6,20.3,24.5C20.2,24.5,20.3,24.5,20.3,24.5
			C20.3,24.5,20.3,24.5,20.3,24.5z"/>
		<path class="st1" d="M17.1,13.9c-0.1,0-0.2,0-0.3,0c-0.3-0.1-0.5,0.1-0.6,0.4c0,0.1,0,0.1-0.1,0.2c-0.1,0.1-0.2,0.1-0.3,0.1
			c0-0.1-0.1-0.2-0.1-0.3c0.2-0.4,0.4-0.9,0.6-1.3c0.2-0.4,0.4-0.8,0.6-1.2c0.1-0.1,0.2-0.2,0.3-0.2c0.1,0,0.2,0.1,0.3,0.2
			c0.4,0.8,0.8,1.7,1.1,2.5c0,0.1,0,0.3-0.1,0.4c-0.2,0.1-0.3,0-0.4-0.2C18,13.8,17.5,14,17.1,13.9z M16.6,13.4c0.4,0,0.7,0,1.1,0
			c-0.2-0.4-0.3-0.8-0.5-1.2C17,12.7,16.8,13,16.6,13.4z"/>
		<path class="st1" d="M12,15.3c0.2,0.1,0.5,0.3,0.7,0.4c0.1,0.1,0.1,0.2,0.2,0.3c-0.1,0-0.3,0.1-0.3,0.1c-0.3-0.1-0.6-0.3-0.9-0.5
			c-0.2,0.1-0.5,0.3-0.8,0.5c-0.1,0-0.3,0-0.4-0.1c0.1-0.1,0.1-0.3,0.2-0.3c0.2-0.2,0.4-0.3,0.6-0.4c-0.2-0.4-0.3-0.7-0.5-1
			c0-0.1-0.1-0.1-0.2-0.2c0,0-0.1,0-0.2,0c-0.2,0-0.4,0-0.4-0.2c0-0.1,0.3-0.2,0.4-0.2c0.2,0,0.4,0,0.6,0c0.1,0,0.2,0,0.3,0
			c0,0-0.1-0.1-0.1-0.1c0.1-0.2,0.2-0.3,0.4-0.5c0.1,0.2,0.2,0.3,0.3,0.5c0,0,0,0.1-0.1,0.1c0.3,0,0.7,0,1,0c0.1,0,0.3,0.1,0.4,0.2
			c-0.1,0.1-0.2,0.2-0.4,0.2c-0.3,0-0.4,0.1-0.5,0.4C12.3,14.8,12.1,15,12,15.3z M11.2,14.2c0.1,0.3,0.3,0.5,0.4,0.8
			c0.2-0.3,0.3-0.5,0.4-0.8C11.8,14.2,11.5,14.2,11.2,14.2z"/>
	</g>
</g>
</svg>
