<?xml version="1.0" encoding="utf-8"?>
<!-- Generator: Adobe Illustrator 23.0.6, SVG Export Plug-In . SVG Version: 6.00 Build 0)  -->
<svg version="1.1" id="Calque_1" xmlns="http://www.w3.org/2000/svg" xmlns:xlink="http://www.w3.org/1999/xlink" x="0px" y="0px"
	 viewBox="0 0 30 30" style="enable-background:new 0 0 30 30;" xml:space="preserve">
<style type="text/css">
	.st0{fill:#1530A0;}
	.st1{fill:none;stroke:#1530A0;stroke-miterlimit:10;}
</style>
<path class="st0" d="M17.6,11.4c0.8,0,1.5,0,2.3,0c0.2,2.9,0.4,5.7,0.5,8.6c-3.4,0-6.7,0-10,0c0-0.5,0.1-0.9,0.1-1.4
	c0.1-1.9,0.3-3.7,0.4-5.6c0-0.4,0.1-0.9,0.1-1.3c0-0.2,0.1-0.3,0.3-0.3c0.6,0,1.3,0,1.9,0c0.1-0.4,0.1-0.9,0.2-1.3
	c0.2-0.8,0.6-1.5,1.5-1.6c0.9-0.2,1.7-0.1,2.2,0.7c0.4,0.5,0.5,1.2,0.5,1.8C17.6,11.1,17.6,11.2,17.6,11.4z M11.5,12.1
	c-0.1,2.4-0.3,4.8-0.5,7.2c2.9,0,5.7,0,8.5,0c-0.2-2.4-0.3-4.8-0.5-7.2C16.6,12.1,14.1,12.1,11.5,12.1z M16.9,11.4
	c-0.1-0.5-0.1-0.9-0.2-1.4c-0.3-0.9-1.7-1.2-2.3-0.6c-0.5,0.5-0.5,1.2-0.5,1.9C14.9,11.4,15.9,11.4,16.9,11.4z"/>
<g>
	<circle class="st1" cx="15.4" cy="14.2" r="12.2"/>
</g>
</svg>
