<?xml version="1.0" encoding="utf-8"?>
<!-- Generator: Adobe Illustrator 23.0.6, SVG Export Plug-In . SVG Version: 6.00 Build 0)  -->
<svg version="1.1" id="Calque_1" xmlns="http://www.w3.org/2000/svg" xmlns:xlink="http://www.w3.org/1999/xlink" x="0px" y="0px"
	 viewBox="0 0 30 30" style="enable-background:new 0 0 30 30;" xml:space="preserve">
<style type="text/css">
	.st0{fill:#1530A0;stroke:#1530A0;stroke-miterlimit:10;}
	.st1{fill:none;stroke:#1530A0;stroke-miterlimit:10;}
</style>
<path class="st0" d="M17.8,8.3c0.3,0,0.5,0,0.8,0c0.7,0.1,1.4,0.5,1.9,0.9c0.1,0.1,0.2,0.1,0.3,0C21.4,9,22,8.8,22.6,8.6
	c-0.2,0.6-0.6,1.2-1.2,1.7c0.5-0.1,1-0.3,1.6-0.5l0.1,0.1c-0.4,0.4-0.8,0.8-1.2,1.2c-0.3,0.3-0.4,0.5-0.4,0.8c0,0.6-0.1,1.2-0.2,1.8
	c-0.8,3.8-3.6,6.4-7.4,7.1c-2.1,0.3-4,0.1-5.9-1c-0.1-0.1-0.3-0.2-0.4-0.3c1.7,0.1,3.2-0.3,4.6-1.4c-1.8-0.5-2.7-1.2-2.9-2.2
	c0.5,0,0.8-0.1,1.3-0.1c-1.2-0.6-1.4-0.8-1.7-1.2c-0.5-0.6-0.8-1.5-0.6-1.9c0.4,0.1,0.8,0.3,1.2,0.4c-1.3-1.5-1.7-3.2-0.8-4.3
	c1.7,2,3.9,3.2,6.6,3.3c0-0.1,0-0.3,0-0.4c-0.1-1.2,0.3-2.1,1.2-2.9C16.6,8.6,17.2,8.4,17.8,8.3z"/>
<g>
	<circle class="st1" cx="15.4" cy="14.6" r="12.2"/>
</g>
</svg>
